<svg width="88" height="88" xmlns="http://www.w3.org/2000/svg" xmlns:xlink="http://www.w3.org/1999/xlink"><defs><path id="a" d="M0 0h88v88H0z"/><path d="M4.838.012c-.149.005-.291.034-.436.051-1.15.185-2.097.8-2.8 1.62-.355.41-.656.872-.914 1.368-.127.25-.247.505-.352.775-.053.134-.104.27-.151.412-.025.069-.047.144-.07.216l-.072.248c-.126.436.03 1.041.409 1.472.452.515 1.049.586 1.333.159l.11-.164c.011-.018.039-.077.06-.118l.077-.139a5.666 5.666 0 0 1 .532-.788c.26-.32.548-.601.855-.826.616-.453 1.316-.668 2.036-.62.092.01.18.009.272.026l.006.002c.197.036.397.08.605.146.071.022.144.048.217.08.072.023.146.053.22.088.204.094.413.205.624.326.095.053.189.11.285.18.76.5 1.525 1.181 2.27 1.982.084.09.183.186.277.265.993.836 2.103.676 2.48-.357.378-1.033-.121-2.548-1.114-3.384l-.044-.037C10.48 2.091 9.314 1.278 8.083.713A6.602 6.602 0 0 0 7.396.43a7.302 7.302 0 0 0-.472-.156 5.393 5.393 0 0 0-.712-.172C5.901.036 5.593.019 5.288 0l-.45.012Z" id="d"/><path d="M2.073 1.166c-.412.35-.776.757-1.102 1.205a8.08 8.08 0 0 0-.458.708 7.85 7.85 0 0 0-.208.383c-.034.064-.067.134-.1.2L.1 3.897c-.186.41-.111 1.028.21 1.51.385.575.974.735 1.317.36l.132-.146c.015-.015.05-.069.078-.106l.095-.125a5.413 5.413 0 0 1 .641-.693 4.59 4.59 0 0 1 .97-.682 3.12 3.12 0 0 1 2.128-.3c.09.024.178.035.268.067l.007.002c.192.066.387.14.586.236.07.033.139.07.208.112.07.034.138.075.208.12.193.124.387.265.583.416.088.067.175.137.261.22.695.607 1.37 1.394 2.01 2.295.072.101.158.21.242.302.883.974 2.02.986 2.538.027.518-.958.223-2.523-.66-3.496l-.039-.043C10.928 2.919 9.87 1.943 8.71 1.199a6.685 6.685 0 0 0-.65-.381 7.71 7.71 0 0 0-.452-.226 5.698 5.698 0 0 0-.69-.277C6.611.2 6.303.137 6 .073L5.55.016C5.399-.001 5.25.004 5.104 0c-1.18.006-2.213.466-3.03 1.166" id="g"/><path d="M3.406.19a7.258 7.258 0 0 0-1.533.605 8.36 8.36 0 0 0-.72.43 7.73 7.73 0 0 0-.351.248c-.058.041-.117.089-.175.134l-.194.159c-.34.28-.514.842-.396 1.382.14.645.64 1.015 1.119.826L1.34 3.9c.02-.008.075-.04.116-.061l.14-.071a5.705 5.705 0 0 1 .889-.345c.403-.118.807-.19 1.201-.207.79-.037 1.533.16 2.158.576.077.056.156.101.23.164l.005.004c.159.132.316.272.469.433.053.056.105.114.155.178.053.056.103.119.152.184.135.182.266.38.394.587.057.092.113.186.163.292.425.794.76 1.737 1.015 2.763.03.116.069.243.112.355.46 1.184 1.545 1.64 2.421 1.019.877-.622 1.215-2.085.755-3.269l-.02-.052c-.499-1.281-1.127-2.536-1.943-3.63a6.81 6.81 0 0 0-.471-.584 8.034 8.034 0 0 0-.345-.372 5.868 5.868 0 0 0-.551-.51C8.138 1.14 7.869.964 7.604.79L7.193.563c-.137-.074-.28-.127-.42-.189A5.145 5.145 0 0 0 4.836 0c-.49 0-.97.068-1.43.19" id="j"/><path d="M6.624.103a5.317 5.317 0 0 0-.711.172A7.392 7.392 0 0 0 5.44.43c-.23.084-.46.17-.685.281-1.232.566-2.396 1.378-3.47 2.283l-.045.037C.248 3.868-.251 5.382.126 6.416c.377 1.033 1.488 1.193 2.48.357.094-.08.193-.175.278-.265.745-.801 1.51-1.483 2.27-1.983.095-.069.19-.125.284-.18.211-.12.42-.231.625-.326.074-.033.147-.065.219-.088.074-.031.146-.057.218-.08.208-.065.408-.11.605-.146h.006c.092-.019.18-.017.271-.028.72-.047 1.42.167 2.036.621.308.225.594.505.855.826.13.162.255.332.368.513.058.09.113.182.165.275l.075.139c.022.041.05.1.062.118l.11.164c.284.427.88.355 1.332-.16.38-.43.535-1.036.41-1.471l-.072-.248c-.024-.072-.046-.147-.07-.216a8.59 8.59 0 0 0-.503-1.187 7.112 7.112 0 0 0-.914-1.368C10.532.862 9.586.247 8.435.063 8.291.045 8.148.017 7.999.012L7.549 0c-.304.019-.613.036-.925.103" id="m"/><path d="m7.289.016-.453.056c-.303.065-.61.13-.915.243a5.53 5.53 0 0 0-.69.277c-.15.068-.3.144-.453.225-.22.118-.44.238-.65.382-1.16.744-2.218 1.72-3.174 2.773l-.039.042c-.883.974-1.178 2.54-.66 3.498.52.957 1.656.946 2.538-.027.084-.093.17-.202.243-.303.639-.9 1.315-1.688 2.01-2.295a3.19 3.19 0 0 1 .26-.22c.196-.151.391-.292.584-.416.069-.045.138-.086.207-.12a2.34 2.34 0 0 1 .208-.112c.2-.096.395-.17.587-.235l.007-.003c.09-.031.178-.043.268-.068a3.122 3.122 0 0 1 2.127.3c.34.174.665.407.97.682a5.475 5.475 0 0 1 .641.693h.001l.095.126c.027.037.063.091.077.107l.132.144c.343.377.933.215 1.317-.36.321-.48.396-1.1.21-1.509l-.105-.233c-.033-.067-.065-.137-.1-.201a8.377 8.377 0 0 0-.666-1.09 6.866 6.866 0 0 0-1.101-1.206C9.947.466 8.913.006 7.734 0c-.148.004-.295-.002-.445.016" id="o"/><path d="M5.148.374c-.14.062-.283.115-.42.188L4.317.79c-.265.174-.534.35-.78.567-.196.152-.375.33-.553.51a7.887 7.887 0 0 0-.344.371 6.867 6.867 0 0 0-.472.583C1.352 3.915.725 5.17.226 6.45l-.02.053C-.254 7.687.083 9.15.96 9.771c.877.622 1.961.166 2.421-1.018a3.13 3.13 0 0 0 .113-.356c.255-1.025.59-1.968 1.015-2.762.05-.106.106-.2.163-.292.128-.207.258-.405.394-.587.049-.065.099-.128.152-.184.05-.064.102-.122.154-.178.153-.161.31-.302.469-.433l.006-.004c.073-.063.153-.108.23-.164a3.56 3.56 0 0 1 2.157-.576c.394.017.798.089 1.2.207a6.028 6.028 0 0 1 .89.345l.14.07c.041.022.097.054.117.062l.184.073c.478.189.979-.18 1.119-.826.117-.54-.057-1.102-.397-1.382l-.193-.159c-.059-.045-.118-.092-.175-.134a8.245 8.245 0 0 0-1.07-.678h-.001c-.49-.258-1-.466-1.534-.605-.46-.122-.94-.19-1.43-.19-.64 0-1.295.115-1.936.374" id="q"/><path d="M16.368 49.166C9.8 44.846 5.375 36.631 5.392 27.2c.025-13.939 9.74-25.255 21.7-25.277" id="t"/><path d="M48.368 49.166C41.8 44.846 37.375 36.631 37.392 27.2c.025-13.939 9.74-25.255 21.7-25.277" id="v"/><linearGradient x1="1.217%" y1="56.788%" x2="107.563%" y2="40.101%" id="e"><stop stop-color="#FFD09B" offset="0%"/><stop stop-color="#FFD595" offset="100%"/></linearGradient><linearGradient x1="1.217%" y1="58.591%" x2="107.563%" y2="37.472%" id="h"><stop stop-color="#FFD09B" offset="0%"/><stop stop-color="#FFD595" offset="100%"/></linearGradient><linearGradient x1="1.217%" y1="64.883%" x2="107.563%" y2="28.295%" id="k"><stop stop-color="#FFD09B" offset="0%"/><stop stop-color="#FFD595" offset="100%"/></linearGradient><filter x="-98.7%" y="-60.6%" width="295.6%" height="250.7%" filterUnits="objectBoundingBox" id="b"><feOffset dy="4" in="SourceAlpha" result="shadowOffsetOuter1"/><feGaussianBlur stdDeviation="10" in="shadowOffsetOuter1" result="shadowBlurOuter1"/><feColorMatrix values="0 0 0 0 0.331465127 0 0 0 0 0.331465127 0 0 0 0 0.331465127 0 0 0 0.151496941 0" in="shadowBlurOuter1" result="shadowMatrixOuter1"/><feMerge><feMergeNode in="shadowMatrixOuter1"/><feMergeNode in="SourceGraphic"/></feMerge></filter><filter x="-147.5%" y="-59.3%" width="394.9%" height="235.5%" filterUnits="objectBoundingBox" id="s"><feOffset dy="4" in="SourceAlpha" result="shadowOffsetOuter1"/><feGaussianBlur stdDeviation="10" in="shadowOffsetOuter1" result="shadowBlurOuter1"/><feColorMatrix values="0 0 0 0 0.645606884 0 0 0 0 0.645606884 0 0 0 0 0.645606884 0 0 0 0.153053977 0" in="shadowBlurOuter1"/></filter><filter x="-147.5%" y="-59.3%" width="394.9%" height="235.5%" filterUnits="objectBoundingBox" id="u"><feOffset dy="4" in="SourceAlpha" result="shadowOffsetOuter1"/><feGaussianBlur stdDeviation="10" in="shadowOffsetOuter1" result="shadowBlurOuter1"/><feColorMatrix values="0 0 0 0 0.645606884 0 0 0 0 0.645606884 0 0 0 0 0.645606884 0 0 0 0.153053977 0" in="shadowBlurOuter1"/></filter></defs><g fill="none" fill-rule="evenodd"><mask id="c" fill="#fff"><use xlink:href="#a"/></mask><g filter="url(#b)" mask="url(#c)"><g transform="translate(60.345 32.062)"><mask id="f" fill="#fff"><use xlink:href="#d"/></mask><path d="M4.838.012c-.149.005-.291.034-.436.051-1.15.185-2.097.8-2.8 1.62-.355.41-.656.872-.914 1.368-.127.25-.247.505-.352.775-.053.134-.104.27-.151.412-.025.069-.047.144-.07.216l-.072.248c-.126.436.03 1.041.409 1.472.452.515 1.049.586 1.333.159l.11-.164c.011-.018.039-.077.06-.118l.077-.139a5.666 5.666 0 0 1 .532-.788c.26-.32.548-.601.855-.826.616-.453 1.316-.668 2.036-.62.092.01.18.009.272.026l.006.002c.197.036.397.08.605.146.071.022.144.048.217.08.072.023.146.053.22.088.204.094.413.205.624.326.095.053.189.11.285.18.76.5 1.525 1.181 2.27 1.982.084.09.183.186.277.265.993.836 2.103.676 2.48-.357.378-1.033-.121-2.548-1.114-3.384l-.044-.037C10.48 2.091 9.314 1.278 8.083.713A6.602 6.602 0 0 0 7.396.43a7.302 7.302 0 0 0-.472-.156 5.393 5.393 0 0 0-.712-.172C5.901.036 5.593.019 5.288 0l-.45.012Z" fill="url(#e)" mask="url(#f)"/></g><g transform="translate(62.179 43.938)"><mask id="i" fill="#fff"><use xlink:href="#g"/></mask><path d="M2.073 1.166c-.412.35-.776.757-1.102 1.205a8.08 8.08 0 0 0-.458.708 7.85 7.85 0 0 0-.208.383c-.034.064-.067.134-.1.2L.1 3.897c-.186.41-.111 1.028.21 1.51.385.575.974.735 1.317.36l.132-.146c.015-.015.05-.069.078-.106l.095-.125a5.413 5.413 0 0 1 .641-.693 4.59 4.59 0 0 1 .97-.682 3.12 3.12 0 0 1 2.128-.3c.09.024.178.035.268.067l.007.002c.192.066.387.14.586.236.07.033.139.07.208.112.07.034.138.075.208.12.193.124.387.265.583.416.088.067.175.137.261.22.695.607 1.37 1.394 2.01 2.295.072.101.158.21.242.302.883.974 2.02.986 2.538.027.518-.958.223-2.523-.66-3.496l-.039-.043C10.928 2.919 9.87 1.943 8.71 1.199a6.685 6.685 0 0 0-.65-.381 7.71 7.71 0 0 0-.452-.226 5.698 5.698 0 0 0-.69-.277C6.611.2 6.303.137 6 .073L5.55.016C5.399-.001 5.25.004 5.104 0c-1.18.006-2.213.466-3.03 1.166" fill="url(#h)" mask="url(#i)"/></g><g transform="translate(57.594 56.728)"><mask id="l" fill="#fff"><use xlink:href="#j"/></mask><path d="M3.406.19a7.258 7.258 0 0 0-1.533.605 8.36 8.36 0 0 0-.72.43 7.73 7.73 0 0 0-.351.248c-.058.041-.117.089-.175.134l-.194.159c-.34.28-.514.842-.396 1.382.14.645.64 1.015 1.119.826L1.34 3.9c.02-.008.075-.04.116-.061l.14-.071a5.705 5.705 0 0 1 .889-.345c.403-.118.807-.19 1.201-.207.79-.037 1.533.16 2.158.576.077.056.156.101.23.164l.005.004c.159.132.316.272.469.433.053.056.105.114.155.178.053.056.103.119.152.184.135.182.266.38.394.587.057.092.113.186.163.292.425.794.76 1.737 1.015 2.763.03.116.069.243.112.355.46 1.184 1.545 1.64 2.421 1.019.877-.622 1.215-2.085.755-3.269l-.02-.052c-.499-1.281-1.127-2.536-1.943-3.63a6.81 6.81 0 0 0-.471-.584 8.034 8.034 0 0 0-.345-.372 5.868 5.868 0 0 0-.551-.51C8.138 1.14 7.869.964 7.604.79L7.193.563c-.137-.074-.28-.127-.42-.189A5.145 5.145 0 0 0 4.836 0c-.49 0-.97.068-1.43.19" fill="url(#k)" mask="url(#l)"/></g><g transform="translate(14.497 31.148)"><mask id="n" fill="#fff"><use xlink:href="#m"/></mask><path d="M6.624.103a5.317 5.317 0 0 0-.711.172A7.392 7.392 0 0 0 5.44.43c-.23.084-.46.17-.685.281-1.232.566-2.396 1.378-3.47 2.283l-.045.037C.248 3.868-.251 5.382.126 6.416c.377 1.033 1.488 1.193 2.48.357.094-.08.193-.175.278-.265.745-.801 1.51-1.483 2.27-1.983.095-.069.19-.125.284-.18.211-.12.42-.231.625-.326.074-.033.147-.065.219-.088.074-.031.146-.057.218-.08.208-.065.408-.11.605-.146h.006c.092-.019.18-.017.271-.028.72-.047 1.42.167 2.036.621.308.225.594.505.855.826.13.162.255.332.368.513.058.09.113.182.165.275l.075.139c.022.041.05.1.062.118l.11.164c.284.427.88.355 1.332-.16.38-.43.535-1.036.41-1.471l-.072-.248c-.024-.072-.046-.147-.07-.216a8.59 8.59 0 0 0-.503-1.187 7.112 7.112 0 0 0-.914-1.368C10.532.862 9.586.247 8.435.063 8.291.045 8.148.017 7.999.012L7.549 0c-.304.019-.613.036-.925.103" fill="url(#e)" mask="url(#n)"/></g><g transform="translate(12.663 43.025)"><mask id="p" fill="#fff"><use xlink:href="#o"/></mask><path d="m7.289.016-.453.056c-.303.065-.61.13-.915.243a5.53 5.53 0 0 0-.69.277c-.15.068-.3.144-.453.225-.22.118-.44.238-.65.382-1.16.744-2.218 1.72-3.174 2.773l-.039.042c-.883.974-1.178 2.54-.66 3.498.52.957 1.656.946 2.538-.027.084-.093.17-.202.243-.303.639-.9 1.315-1.688 2.01-2.295a3.19 3.19 0 0 1 .26-.22c.196-.151.391-.292.584-.416.069-.045.138-.086.207-.12a2.34 2.34 0 0 1 .208-.112c.2-.096.395-.17.587-.235l.007-.003c.09-.031.178-.043.268-.068a3.122 3.122 0 0 1 2.127.3c.34.174.665.407.97.682a5.475 5.475 0 0 1 .641.693h.001l.095.126c.027.037.063.091.077.107l.132.144c.343.377.933.215 1.317-.36.321-.48.396-1.1.21-1.509l-.105-.233c-.033-.067-.065-.137-.1-.201a8.377 8.377 0 0 0-.666-1.09 6.866 6.866 0 0 0-1.101-1.206C9.947.466 8.913.006 7.734 0c-.148.004-.295-.002-.445.016" fill="url(#h)" mask="url(#p)"/></g><g transform="translate(18.165 55.815)"><mask id="r" fill="#fff"><use xlink:href="#q"/></mask><path d="M5.148.374c-.14.062-.283.115-.42.188L4.317.79c-.265.174-.534.35-.78.567-.196.152-.375.33-.553.51a7.887 7.887 0 0 0-.344.371 6.867 6.867 0 0 0-.472.583C1.352 3.915.725 5.17.226 6.45l-.02.053C-.254 7.687.083 9.15.96 9.771c.877.622 1.961.166 2.421-1.018a3.13 3.13 0 0 0 .113-.356c.255-1.025.59-1.968 1.015-2.762.05-.106.106-.2.163-.292.128-.207.258-.405.394-.587.049-.065.099-.128.152-.184.05-.064.102-.122.154-.178.153-.161.31-.302.469-.433l.006-.004c.073-.063.153-.108.23-.164a3.56 3.56 0 0 1 2.157-.576c.394.017.798.089 1.2.207a6.028 6.028 0 0 1 .89.345l.14.07c.041.022.097.054.117.062l.184.073c.478.189.979-.18 1.119-.826.117-.54-.057-1.102-.397-1.382l-.193-.159c-.059-.045-.118-.092-.175-.134a8.245 8.245 0 0 0-1.07-.678h-.001c-.49-.258-1-.466-1.534-.605-.46-.122-.94-.19-1.43-.19-.64 0-1.295.115-1.936.374" fill="url(#k)" mask="url(#r)"/></g><path d="M65.203 47.593C65.203 62.729 55.494 75 43.518 75 31.54 75 21.832 62.73 21.832 47.593s9.71-27.408 21.686-27.408c11.976 0 21.685 12.27 21.685 27.408" fill="#C65200"/><path d="M65.203 45.388s-9.709-11.64-21.685-11.64c-11.977 0-21.686 11.64-21.686 11.64 0-13.92 9.71-25.203 21.686-25.203 11.976 0 21.685 11.284 21.685 25.203" fill="#F7931E"/><path d="M29.663 76.86c-9.328-3.011-13.77-14.993-9.923-26.762 3.848-11.77 14.53-18.868 23.857-15.856M58.756 76.86c9.328-3.011 13.77-14.993 9.923-26.762-3.848-11.77-14.529-18.868-23.857-15.856" fill="#755000" opacity=".519"/><g transform="rotate(14 -93.633 85.04)"><use fill="#000" filter="url(#s)" xlink:href="#t"/><use fill="#FFDC44" xlink:href="#t"/></g><g transform="scale(-1 1) rotate(14 -121.005 -398.505)"><use fill="#000" filter="url(#u)" xlink:href="#v"/><use fill="#FFDC44" xlink:href="#v"/></g><path d="M37.007 23.897S36.08 4.654 21.832 4.654M50.671 23.897s.93-19.243 15.175-19.243" stroke="#FFDCA1" stroke-width="3" stroke-linecap="round" stroke-linejoin="round"/></g></g></svg>