<svg version="1.1" xmlns="http://www.w3.org/2000/svg" width="24" height="24" viewBox="0 0 24 24">
<path fill="currentColor" d="M11.247 1l-4.537 2.62v16.117l4.537 2.62 4.538-2.62v-5.863l-2.567-2.193v6.574l-1.972 1.138-1.97-1.138v-13.153l1.97-1.138 1.972 1.139v5.518l2.567 2.193v-9.193l-4.538-2.62z"></path>
<path fill="currentColor" d="M16.457 5.666v3.376l1.471-1.257v7.743l-7.98-6.818v3.376l7.697 6.577 2.849-1.645v-10.679l-2.88-1.662z"></path>
<path fill="currentColor" d="M2 6.339v10.679l2.849 1.645 1.187-1.015v-3.376l-1.47 1.256v-7.743l1.47 1.256v-3.376l-1.157-0.988z"></path>
</svg>
