<?xml version="1.0" encoding="UTF-8"?>
<svg width="220px" height="35px" viewBox="0 0 220 35" version="1.1" xmlns="http://www.w3.org/2000/svg" xmlns:xlink="http://www.w3.org/1999/xlink">
    <title>openEuler Docs</title>
    <defs>
        <polygon id="path-1" points="0 0 31.8345101 0 31.8345101 35 0 35"></polygon>
    </defs>
    <g id="页面-1" stroke="none" stroke-width="1" fill="none" fill-rule="evenodd">
        <g id="文档地图网页端" transform="translate(-40.000000, -36.000000)">
            <g id="openEuler-Docs" transform="translate(40.000000, 36.000000)">
                <g id="logo/openEuler/白色" transform="translate(-0.000000, 0.000000)">
                    <g id="编组" transform="translate(-0.000000, 0.000000)">
                        <path d="M63.2372857,22.0581489 C61.2839464,22.0581489 59.6999032,20.5241282 59.6999032,18.6318594 C59.6999032,16.7395906 61.2839464,15.2055698 63.2372857,15.2055698 C65.1907847,15.2055698 66.7746682,16.7395906 66.7746682,18.6318594 C66.7746682,20.5241282 65.1907847,22.0581489 63.2372857,22.0581489 M63.2372857,12.2749704 C61.7696856,12.2749704 60.4191677,12.7474178 59.3261347,13.5358115 L59.3261347,12.4736184 C59.3261347,12.3639127 59.2341302,12.2749704 59.1208816,12.2749704 L56.5872429,12.2749704 C56.474154,12.2749704 56.3823092,12.3639127 56.3823092,12.4736184 L56.3823092,28.8540157 C56.3823092,28.9638764 56.474154,29.0528186 56.5872429,29.0528186 L59.1208816,29.0528186 C59.2341302,29.0528186 59.3261347,28.9638764 59.3261347,28.8540157 L59.3261347,23.7277523 C60.4191677,24.5163009 61.7696856,24.9885933 63.2372857,24.9885933 C66.8620406,24.9885933 69.8001158,22.1424426 69.8001158,18.6318594 C69.8001158,15.1208113 66.8620406,12.2749704 63.2372857,12.2749704" id="Fill-1" fill="#FFFFFF"></path>
                        <path d="M75.5511657,16.2726595 C76.2089342,15.6469649 77.0326623,15.3339627 78.0220304,15.3339627 C79.0347192,15.3339627 79.8656351,15.6432461 80.5162158,16.2616579 C80.7479841,16.482154 80.9121867,16.6893243 81.0584994,16.9586301 C81.0751113,16.9893106 81.1153633,17.0591937 81.1259055,17.0923534 C81.155775,17.1856342 81.0829381,17.1856342 81.0829381,17.1856342 L74.9836447,17.1856342 C74.9836447,17.1856342 74.895314,17.1856342 74.9376424,17.1011856 C74.9799709,17.0168919 75.027251,16.9350775 75.0774063,16.8549675 C75.2079057,16.6462477 75.3633231,16.4508538 75.5511657,16.2726595 M80.5674891,21.0268841 C80.5454464,21.0518313 80.5238828,21.0775533 80.4991246,21.1011059 C79.8370434,21.7300544 79.0077248,22.0444512 78.0105299,22.0444512 C77.0133349,22.0444512 76.1896069,21.7339282 75.5398249,21.1116426 C75.2507134,20.835209 75.0307651,20.518178 74.8737504,20.1642686 C74.804747,20.0086972 74.7470844,19.846153 74.7025197,19.676636 C74.6937346,19.6436313 74.698207,19.6199237 74.7084298,19.603034 C74.7196109,19.5844398 74.7430912,19.5625916 74.7720023,19.5621267 C74.7913297,19.5619718 74.8823758,19.5621267 74.8823758,19.5621267 L77.3521224,19.5621267 L81.3774804,19.5621267 C82.0919531,19.5619718 83.6325498,19.5619718 84.3468627,19.5621267 C84.3502171,19.5621267 84.5319899,19.5652258 84.551477,19.4112039 C84.551477,19.4112039 84.5944444,19.0473776 84.5946042,18.677973 C84.5947638,17.7925796 84.3593217,16.9707164 84.359162,16.9707164 C84.2134881,16.4627851 84.0004082,15.9726732 83.7197624,15.5006906 C83.1369073,14.5196921 82.3253187,13.7430748 81.2856356,13.1702187 C80.2453135,12.5982924 79.1345505,12.3119419 77.9533465,12.3119419 C76.3189882,12.3119419 74.8723128,12.86202 73.6139592,13.9618664 C72.1786246,15.2251867 71.4614365,16.8050731 71.4614365,18.7004409 C71.4614365,20.4690584 72.0962039,21.9725536 73.3660581,23.209997 C74.636072,24.4474404 76.1690017,25.066472 77.9645276,25.066472 C79.1843863,25.066472 80.3016983,24.7855448 81.314387,24.2244651 C82.1881106,23.7403963 82.8934787,23.0849511 83.4498186,22.2770335 C83.4611594,22.2607636 83.4670694,22.2221807 83.4268174,22.2034315 C83.1329141,22.0667642 82.832302,21.9434227 82.5347249,21.8137283 C82.0552152,21.6046986 81.5750665,21.3962887 81.0945984,21.1884986 C80.8304049,21.0741443 80.7850415,21.0547754 80.7376017,21.0341668 C80.687127,21.0120087 80.6224363,20.9652134 80.5674891,21.0268841" id="Fill-3" fill="#FFFFFF"></path>
                        <path d="M91.9325564,12.3198909 C88.9098243,12.3198909 86.4595647,14.6932844 86.4595647,17.6210947 L86.4595647,20.9497647 L86.4595647,23.3553881 L86.4595647,24.7917893 C86.4595647,24.9101724 86.5585974,25.0060874 86.6807909,25.0060874 L89.4017929,25.0060874 C89.5241462,25.0060874 89.6231788,24.9101724 89.6231788,24.7917893 L89.6231788,23.3553881 L89.6231788,22.4221147 L89.6231788,20.9497647 L89.6231788,17.6210947 C89.6231788,16.3855107 90.6571117,15.3840586 91.9325564,15.3840586 C93.2078415,15.3840586 94.2419341,16.3855107 94.2419341,17.6210947 L94.2419341,20.9497647 L94.2419341,22.4221147 L94.2419341,23.3553881 L94.2419341,24.7917893 C94.2419341,24.9101724 94.3409667,25.0060874 94.4631602,25.0060874 L97.1841623,25.0060874 C97.3065155,25.0060874 97.4055482,24.9101724 97.4055482,24.7917893 L97.4055482,23.3553881 L97.4055482,20.9497647 L97.4055482,17.6210947 C97.4055482,14.6932844 94.9551289,12.3198909 91.9325564,12.3198909" id="Fill-5" fill="#FFFFFF"></path>
                        <path d="M109.808909,11.6188899 C109.931103,11.6188899 110.030135,11.5228199 110.030135,11.4045919 L110.030135,8.76514652 C110.030135,8.6467635 109.931103,8.55084847 109.808909,8.55084847 L102.283545,8.55084847 L99.3989797,8.55084847 C99.2767862,8.55084847 99.1777535,8.6467635 99.1777535,8.76514652 L99.1777535,11.4045919 L99.1777535,14.7878049 L99.1777535,17.4270953 L99.1777535,22.1700085 L99.1777535,24.8094538 C99.1777535,24.9278368 99.2767862,25.0237519 99.3989797,25.0237519 L102.283545,25.0237519 L109.808909,25.0237519 C109.931103,25.0237519 110.030135,24.9278368 110.030135,24.8094538 L110.030135,22.1700085 C110.030135,22.0516254 109.931103,21.9557104 109.808909,21.9557104 L102.504772,21.9557104 L102.504772,17.6415483 L109.434182,17.6415483 C109.556535,17.6415483 109.655568,17.5454783 109.655568,17.4270953 L109.655568,14.7878049 C109.655568,14.6694219 109.556535,14.5735068 109.434182,14.5735068 L102.504772,14.5735068 L102.504772,11.6188899 L109.808909,11.6188899 Z" id="Fill-7" fill="#FFFFFF"></path>
                        <path d="M116.698355,24.9740124 C113.675783,24.9740124 111.225363,22.6006189 111.225363,19.6728087 L111.225363,16.3441386 L111.225363,13.9383603 L111.225363,12.501959 C111.225363,12.383731 111.324396,12.287661 111.446749,12.287661 L114.167751,12.287661 C114.289945,12.287661 114.388978,12.383731 114.388978,12.501959 L114.388978,13.9383603 L114.388978,14.8717886 L114.388978,16.3441386 L114.388978,19.6728087 C114.388978,20.9082377 115.42307,21.9096898 116.698355,21.9096898 C117.9738,21.9096898 119.007733,20.9082377 119.007733,19.6728087 L119.007733,16.3441386 L119.007733,14.8717886 L119.007733,13.9383603 L119.007733,12.501959 C119.007733,12.383731 119.106765,12.287661 119.229119,12.287661 L121.950121,12.287661 C122.072314,12.287661 122.171347,12.383731 122.171347,12.501959 L122.171347,13.9383603 L122.171347,16.3441386 L122.171347,19.6728087 C122.171347,22.6006189 119.721087,24.9740124 116.698355,24.9740124" id="Fill-9" fill="#FFFFFF"></path>
                        <path d="M126.918749,24.9507852 L123.922372,24.9507852 C123.878287,24.9507852 123.842507,24.916076 123.842507,24.8733094 L123.842507,8.62833976 C123.842507,8.58557312 123.878287,8.55086397 123.922372,8.55086397 L126.918749,8.55086397 C126.962834,8.55086397 126.998614,8.58557312 126.998614,8.62833976 L126.998614,24.8733094 C126.998614,24.916076 126.962834,24.9507852 126.918749,24.9507852" id="Fill-11" fill="#FFFFFF"></path>
                        <path d="M149.116088,12.8218876 C148.090301,13.0199157 147.208591,13.4816714 146.537086,14.1067461 L146.537086,12.497109 C146.537086,12.378726 146.438053,12.282811 146.316019,12.282811 L143.775672,12.282811 C143.653798,12.282811 143.554606,12.378726 143.554606,12.497109 L143.554606,24.8171549 C143.554606,24.9355379 143.653798,25.031453 143.775672,25.031453 L146.316019,25.031453 C146.438053,25.031453 146.537086,24.9355379 146.537086,24.8171549 L146.537086,18.4068077 C146.594589,17.7741404 146.780674,17.3224565 147.226641,16.8645745 C147.86013,16.1277797 148.741201,15.6832236 149.81299,15.4763632 C149.860749,15.4672211 149.909307,15.4621077 149.909307,15.4621077 C149.957865,15.457924 149.999076,15.4304976 149.999076,15.3723907 C149.994923,13.7943637 149.997958,13.2201132 149.998916,13.1877283 C150.001152,13.1102525 149.999235,12.8465249 149.999235,12.7829947 C149.999235,12.7451865 149.990929,12.7248879 149.930551,12.7287617 C149.930551,12.7287617 149.508385,12.7461162 149.116088,12.8218876" id="Fill-13" fill="#FFFFFF"></path>
                        <path d="M132.748578,16.2153119 C133.406346,15.5896174 134.230074,15.2764602 135.219442,15.2764602 C136.232291,15.2764602 137.063207,15.5858985 137.713628,16.2043103 C137.945556,16.4248064 138.109599,16.6319767 138.255911,16.9011276 C138.272683,16.931963 138.312775,17.0018461 138.323317,17.0350058 C138.353347,17.1282866 138.28035,17.1282866 138.28035,17.1282866 L132.181216,17.1282866 C132.181216,17.1282866 132.092726,17.1282866 132.135054,17.043838 C132.177543,16.9595444 132.224663,16.8777299 132.274818,16.7976199 C132.405477,16.5889002 132.560895,16.3935062 132.748578,16.2153119 M137.765061,20.9693816 C137.742858,20.9944837 137.721295,21.0200507 137.696537,21.0437583 C137.034615,21.6727068 136.205296,21.9871036 135.207942,21.9871036 C134.210747,21.9871036 133.387019,21.6765806 132.737237,21.054295 C132.448125,20.7778614 132.228337,20.4608305 132.071322,20.106921 C132.002159,19.9513496 131.944656,19.7888054 131.899932,19.6191334 C131.891146,19.5862837 131.895779,19.5625761 131.906001,19.5456864 C131.917023,19.5270922 131.940503,19.505244 131.969414,19.5047791 C131.988901,19.5046242 132.079788,19.5047791 132.079788,19.5047791 L134.549534,19.5047791 L138.575052,19.5047791 C139.289365,19.5046242 140.829962,19.5046242 141.544275,19.5047791 C141.547789,19.5047791 141.729562,19.5078782 141.748889,19.3538563 C141.748889,19.3538563 141.792016,18.99003 141.792016,18.6206254 C141.792335,17.735232 141.556734,16.9133688 141.556734,16.9133688 C141.4109,16.4054375 141.19782,15.9153256 140.917174,15.4433431 C140.334319,14.4621896 139.522731,13.6855722 138.483047,13.1128712 C137.442885,12.5409449 136.332122,12.2544394 135.150758,12.2544394 C133.5164,12.2544394 132.069725,12.8046725 130.811371,13.9043639 C129.376036,15.1678391 128.658848,16.7477255 128.658848,18.6430934 C128.658848,20.4117108 129.293616,21.9150511 130.56347,23.1526495 C131.833484,24.3899379 133.366414,25.0091244 135.161939,25.0091244 C136.381958,25.0091244 137.49911,24.7281972 138.511959,24.1671175 C139.385522,23.6830487 140.09105,23.0276035 140.64739,22.2196859 C140.658571,22.203416 140.664641,22.1648331 140.624389,22.1460839 C140.330326,22.0094166 140.029714,21.8860752 139.732296,21.7563807 C139.252627,21.547351 138.772638,21.3389411 138.29217,21.131151 C138.027817,21.0167968 137.982613,20.9974278 137.935173,20.9768192 C137.884539,20.9546612 137.819848,20.9078658 137.765061,20.9693816" id="Fill-15" fill="#FFFFFF"></path>
                        <path d="M50.9243481,18.6111578 C50.9243481,18.8161588 50.8114189,19.0055096 50.6282085,19.1080876 L47.2965583,20.9712255 C47.1135076,21.0738034 46.8874896,21.0738034 46.7041194,20.9712255 L43.372629,19.1080876 C43.1889394,19.0055096 43.0764894,18.8161588 43.0764894,18.6111578 L43.0764894,14.884882 C43.0764894,14.6798811 43.1889394,14.4905302 43.372629,14.3876424 L46.7041194,12.5246594 C46.8874896,12.4222364 47.1135076,12.4222364 47.2965583,12.5246594 L50.6282085,14.3876424 C50.8114189,14.4905302 50.9243481,14.6798811 50.9243481,14.884882 L50.9243481,18.6111578 Z M53.814664,12.1510712 L47.7033909,8.73345892 C47.2681264,8.49002997 46.7323916,8.49002997 46.2972869,8.73345892 L40.1861734,12.1510712 C39.7510687,12.3943452 39.4830416,12.8438597 39.4830416,13.3302527 L39.4830416,20.1654772 C39.4830416,20.6521802 39.7513881,21.1016947 40.1861734,21.3449687 L46.2972869,24.7627359 C46.7323916,25.0057 47.2681264,25.0057 47.7033909,24.7627359 L53.814664,21.3449687 C54.2494493,21.1016947 54.5174764,20.6521802 54.5174764,20.1654772 L54.5174764,13.3302527 C54.5174764,12.8438597 54.2494493,12.3943452 53.814664,12.1510712 L53.814664,12.1510712 Z" id="Fill-17" fill="#FFFFFF"></path>
                        <g>
                            <mask id="mask-2" fill="white">
                                <use xlink:href="#path-1"></use>
                            </mask>
                            <g id="Clip-20"></g>
                            <path d="M28.5558903,13.646354 C27.854196,14.5083497 26.0500447,14.8580754 24.6166268,14.4142941 C23.2490178,13.9906564 22.8081628,13.0188001 23.5489909,12.2528744 C24.2629844,11.5153048 25.8601256,11.1968793 27.1913161,11.5301801 C28.5819263,11.8782014 29.2293123,12.8190675 28.5558903,13.646354 M22.2316969,11.8862589 C21.483042,12.6275473 19.8767962,12.9464377 18.7166766,12.5871049 C18.0712073,12.3872174 17.7151689,11.9707075 17.696161,11.6228412 C17.6814659,11.3549299 17.2648898,11.1093316 16.806145,10.9765381 C16.3443653,10.842505 15.8107071,10.8550561 15.2756113,10.9182763 C15.1393615,10.9345462 14.8531252,10.9945125 14.6697551,11.053859 C14.1777864,11.2128393 13.7513071,11.3922732 13.3963868,11.6784688 C12.9547331,12.0347025 12.8077814,12.6672149 12.8178444,12.9022765 C12.8323799,13.2317035 13.14593,13.5135605 13.6227243,13.6875711 C14.0915321,13.8584827 14.6747067,13.889628 15.2554853,13.8005308 C15.9651661,13.6156736 16.7420932,13.607926 17.3792565,13.825478 C18.5460848,14.2238586 18.8409466,15.2432851 17.9579587,16.117212 C17.038712,17.0277076 15.2693818,17.3695308 14.0937684,16.8681074 C13.4422293,16.5902792 13.2128569,16.0823479 13.1781955,15.6129996 C13.1508817,15.246694 12.8120941,14.9532157 12.3514326,14.7700629 C11.8882153,14.5858255 11.3465706,14.5923334 10.7408741,14.6426927 C10.6611688,14.6493556 10.3011371,14.7195487 10.0789526,14.7764159 C9.77546543,14.8538917 9.15203889,15.0237187 8.62828393,15.5235925 C8.214583,15.918719 8.03009475,16.2915326 7.92435343,16.5160574 C7.86397546,16.6448222 7.79018016,16.936751 7.78698556,17.0366947 C7.7734085,17.4491759 8.01476066,17.8226092 8.48564496,18.0623193 C8.94950114,18.2984655 9.5619063,18.3615308 10.1957153,18.2716589 C10.984143,18.0647985 11.8115449,18.0863368 12.4514236,18.3891122 C13.6273565,18.9458533 13.7647244,20.2689849 12.6603506,21.3623233 C11.5043839,22.5067957 9.5353911,22.874031 8.37047957,22.1685364 C7.73219814,21.7820872 7.54691124,21.1993142 7.63699901,20.5203164 C7.63699901,20.5190768 7.63620036,20.5178371 7.63620036,20.5164426 C7.63620036,20.5128787 7.63412386,20.3540533 7.61240057,20.2689849 C7.61240057,20.2688299 7.59514972,20.134332 7.50697871,19.9618708 C7.38861872,19.7306831 7.19247017,19.5386981 6.92651957,19.3899445 C6.47272639,19.135669 5.87309964,19.0701244 5.24711743,19.1609261 C4.46300242,19.3667018 3.69565908,19.3374159 3.19203011,19.0324712 C2.33332116,18.5121438 2.58984768,17.4079588 3.69246448,16.5740093 C4.26142305,16.1435538 4.95465163,15.8609221 5.60826715,15.7505966 L5.61098257,15.7484272 C6.23408964,15.6263254 6.87572541,15.3525259 7.3779168,14.9620479 C7.87100358,14.5783878 8.1280093,14.1609482 8.15037151,13.7996011 L8.152448,13.7980516 C8.15484395,13.7899941 8.1604345,13.6035874 8.12593281,13.406179 C8.10389005,13.0942615 8.12002279,12.7859078 8.41232885,12.449353 C8.59921306,12.234745 9.00444829,12.0261802 9.44801875,11.9452954 C9.75166564,11.8898228 10.1428446,11.9023739 10.3639111,11.8909074 C10.5554274,11.8809905 10.8897425,11.8431824 11.0074636,11.8089381 C11.4545481,11.6790886 11.7211376,11.533899 12.0525776,11.2762145 C12.3910456,11.0129517 12.600931,10.7366731 12.6376689,10.4848767 C12.6454957,10.4315734 12.6638646,10.1850454 12.6582741,10.1554496 C12.5453449,9.56477419 13.3936714,8.9166117 14.5534716,8.707582 C15.1411186,8.60190502 15.6952222,8.6294864 16.114354,8.75887098 C16.1287297,8.76212496 16.1440638,8.76475914 16.1584395,8.76816807 C16.5828423,8.87430991 16.8526264,9.07218309 16.9551732,9.31437242 L16.9596456,9.31561204 C16.9602845,9.32165515 16.9615624,9.32738836 16.962361,9.33343147 C16.9789729,9.37712782 16.9914319,9.42175387 16.9970224,9.4680844 C17.0976524,9.72762831 17.3893195,9.95029374 17.8627595,10.0767342 C18.3277338,10.2008505 18.881518,10.2096827 19.4174125,10.1227549 C20.0630415,9.9555621 20.7928483,9.92844557 21.4183513,10.0849467 C22.5599422,10.3706774 22.9535172,11.1714672 22.2316969,11.8862589 M19.5217162,25.0259987 C18.3783682,26.4383824 16.0947072,26.8463699 14.5657708,25.9205342 C13.1261235,25.0484666 12.9989783,23.3615087 14.1562228,22.1610987 C15.2599577,21.0156966 17.2216029,20.6473767 18.6500691,21.3237404 C20.1596782,22.0382221 20.6070822,23.6853575 19.5217162,25.0259987 M30.7355671,7.96954759 L17.0163498,0.285653254 C16.3362191,-0.0952177513 15.4984348,-0.0952177513 14.8184638,0.285653254 L1.09892703,7.96954759 C0.418796318,8.35041859 -1.5973009e-05,9.05436366 -1.5973009e-05,9.81595072 L-1.5973009e-05,25.1838943 C-1.5973009e-05,25.9457913 0.418796318,26.6494265 1.09892703,27.0304524 L14.8184638,34.7145017 C15.4984348,35.0952178 16.3362191,35.0952178 17.0163498,34.7145017 L30.7355671,27.0304524 C31.4156978,26.6494265 31.8345101,25.9457913 31.8345101,25.1838943 L31.8345101,9.81595072 C31.8345101,9.05436366 31.4156978,8.35041859 30.7355671,7.96954759" id="Fill-19" fill="#FFFFFF" mask="url(#mask-2)"></path>
                        </g>
                    </g>
                </g>
                <g id="Docs" transform="translate(162.000000, 8.000000)" fill="#FFFFFF" fill-rule="nonzero">
                    <path d="M0,0 L0,17.8125 L6.07748411,17.8125 C8.77858816,17.8125 10.8044162,17.0141807 12.201539,15.417542 C13.5288056,13.8957458 14.2040816,11.7253151 14.2040816,8.90625 C14.2040816,6.06223739 13.5288056,3.89180672 12.201539,2.39495798 C10.8044162,0.798319328 8.77858816,0 6.07748411,0 L0,0 Z M2.72438943,2.4947479 L5.56520575,2.4947479 C7.63760455,2.4947479 9.15115423,2.99369748 10.1058548,4.01654412 C11.03727,5.01444328 11.5029776,6.66097689 11.5029776,8.90625 C11.5029776,11.1016282 11.03727,12.7232143 10.1058548,13.7710084 C9.15115423,14.793855 7.63760455,15.3177521 5.56520575,15.3177521 L2.72438943,15.3177521 L2.72438943,2.4947479 Z" id="形状"></path>
                    <path d="M23.6734694,4.75 C21.5155416,4.75 19.7946625,5.40366972 18.510832,6.76330275 C17.199686,8.09678899 16.5714286,9.79633028 16.5714286,11.8880734 C16.5714286,13.9536697 17.199686,15.653211 18.4835165,16.9605505 C19.7946625,18.3201835 21.5155416,19 23.6734694,19 C25.8040816,19 27.5522763,18.3201835 28.8634223,16.9605505 C30.1199372,15.653211 30.7755102,13.9536697 30.7755102,11.8880734 C30.7755102,9.79633028 30.1199372,8.09678899 28.8361068,6.76330275 C27.5249608,5.40366972 25.8040816,4.75 23.6734694,4.75 Z M23.6734694,7.18165138 C24.9572998,7.18165138 25.9679749,7.65229358 26.678179,8.64587156 C27.2791209,9.48256881 27.6069074,10.5807339 27.6069074,11.8880734 C27.6069074,13.1692661 27.2791209,14.2412844 26.678179,15.1041284 C25.9679749,16.0715596 24.9572998,16.5683486 23.6734694,16.5683486 C22.3623234,16.5683486 21.3789639,16.0715596 20.6687598,15.1041284 C20.0678179,14.2674312 19.7673469,13.1954128 19.7673469,11.8880734 C19.7673469,10.5807339 20.0678179,9.48256881 20.6687598,8.64587156 C21.3789639,7.65229358 22.3623234,7.18165138 23.6734694,7.18165138 Z" id="形状"></path>
                    <path d="M38.6417557,4.75 C36.4937861,4.75 34.8231431,5.4559633 33.6298267,6.86788991 C32.5160647,8.14908257 31.9591837,9.82247706 31.9591837,11.8619266 C31.9591837,13.9536697 32.5160647,15.653211 33.6563448,16.9605505 C34.8231431,18.3201835 36.467268,19 38.5887194,19 C40.365435,19 41.7974147,18.5555046 42.8581404,17.6926606 C43.9453843,16.8036697 44.6613741,15.4440367 44.9795918,13.6137615 L41.9830417,13.6137615 C41.7443784,15.5747706 40.6306164,16.5683486 38.6152375,16.5683486 C37.4484393,16.5683486 36.5733405,16.15 35.9899414,15.3394495 C35.353506,14.5027523 35.0618064,13.3261468 35.0618064,11.8357798 C35.0618064,10.3715596 35.3800241,9.22110092 36.0164595,8.41055046 C36.652895,7.57385321 37.5279937,7.18165138 38.6417557,7.18165138 C39.5433725,7.18165138 40.2858805,7.39082569 40.8427615,7.80917431 C41.3731244,8.22752294 41.7443784,8.85504587 41.9300054,9.71788991 L44.9265556,9.71788991 C44.6613741,8.01834862 43.9719024,6.76330275 42.8846585,5.9266055 C41.8239328,5.14220183 40.4184713,4.75 38.6417557,4.75 Z" id="路径"></path>
                    <path d="M51.8907176,4.75 C50.2615756,4.75 48.9633531,5.08990826 47.9705947,5.82201835 C46.952381,6.50183486 46.4687294,7.46926606 46.4687294,8.72431193 C46.4687294,9.90091743 46.9778363,10.816055 47.99605,11.4697248 C48.6324336,11.8880734 49.7270134,12.2802752 51.2797893,12.6463303 C52.6034672,12.9600917 53.4689489,13.1954128 53.8762344,13.4045872 C54.6398947,13.7706422 55.0217248,14.2674312 55.0217248,14.8949541 C55.0217248,15.9931193 54.0035111,16.5683486 51.9670836,16.5683486 C50.9997806,16.5683486 50.3124863,16.3853211 49.8797454,16.0715596 C49.4470046,15.7055046 49.1415405,15.1041284 48.9888084,14.2412844 L46.1632653,14.2412844 C46.4432741,17.4050459 48.4033355,19 52.068905,19 C56.0144832,19 58,17.5619266 58,14.6857798 C58,13.4830275 57.4654378,12.5155963 56.4217687,11.8357798 C55.7090191,11.3389908 54.588984,10.9206422 53.1125741,10.5545872 C51.7888962,10.2146789 50.9234145,9.95321101 50.4906737,9.77018349 C49.7779241,9.45642202 49.4470046,9.06422018 49.4470046,8.64587156 C49.4470046,8.12293578 49.6506474,7.75688073 50.1088435,7.52155963 C50.4906737,7.28623853 51.0761466,7.18165138 51.8398069,7.18165138 C52.7307439,7.18165138 53.3925828,7.31238532 53.8253237,7.6 C54.2326092,7.86146789 54.5380733,8.35825688 54.741716,9.03807339 L57.5672592,9.03807339 C57.261795,6.16192661 55.3526443,4.75 51.8907176,4.75 Z" id="路径"></path>
                </g>
            </g>
        </g>
    </g>
</svg>